<?xml version="1.0" encoding="UTF-8" standalone="no"?>
<!DOCTYPE svg PUBLIC "-//W3C//DTD SVG 1.1//EN"
 "http://www.w3.org/Graphics/SVG/1.1/DTD/svg11.dtd">
<!-- Generated by graphviz version 2.47.0 (20210316.0004)
 -->
<!-- Title: dependencies Pages: 1 -->
<svg width="2131pt" height="284pt"
 viewBox="0.00 0.00 2131.00 284.00" xmlns="http://www.w3.org/2000/svg" xmlns:xlink="http://www.w3.org/1999/xlink">
<g id="graph0" class="graph" transform="scale(1 1) rotate(0) translate(4 280)">
<title>dependencies</title>
<polygon fill="white" stroke="transparent" points="-4,4 -4,-280 2127,-280 2127,4 -4,4"/>
<text text-anchor="start" x="1040.51" y="-42.4" font-family="Times-12" font-weight="bold" font-size="14.00">Legend</text>
<polygon fill="#ffffb3" stroke="transparent" points="827.5,-10 827.5,-30 847.5,-30 847.5,-10 827.5,-10"/>
<text text-anchor="start" x="851.13" y="-15.4" font-family="Times-12" font-size="14.00"> &#160;Declarations</text>
<polygon fill="#8dd3c7" stroke="transparent" points="940.5,-10 940.5,-30 960.5,-30 960.5,-10 940.5,-10"/>
<text text-anchor="start" x="964.23" y="-15.4" font-family="Times-12" font-size="14.00"> &#160;Module</text>
<polygon fill="#80b1d3" stroke="transparent" points="1026.5,-10 1026.5,-30 1046.5,-30 1046.5,-10 1026.5,-10"/>
<text text-anchor="start" x="1050.28" y="-15.4" font-family="Times-12" font-size="14.00"> &#160;Bootstrap</text>
<polygon fill="#fdb462" stroke="transparent" points="1123.5,-10 1123.5,-30 1143.5,-30 1143.5,-10 1123.5,-10"/>
<text text-anchor="start" x="1147.17" y="-15.4" font-family="Times-12" font-size="14.00"> &#160;Providers</text>
<polygon fill="#fb8072" stroke="transparent" points="1219.5,-10 1219.5,-30 1239.5,-30 1239.5,-10 1219.5,-10"/>
<text text-anchor="start" x="1243.23" y="-15.4" font-family="Times-12" font-size="14.00"> &#160;Exports</text>
<g id="clust1" class="cluster">
<title>cluster_AppModule</title>
<polygon fill="none" stroke="black" stroke-dasharray="1,5" points="8,-70 8,-195 1290,-195 1290,-70 8,-70"/>
</g>
<g id="clust6" class="cluster">
<title>cluster_AppModule_providers</title>
<polygon fill="none" stroke="black" points="16,-78 16,-130 1282,-130 1282,-78 16,-78"/>
</g>
<g id="clust7" class="cluster">
<title>cluster_TemplatePlaygroundModule</title>
<polygon fill="none" stroke="black" stroke-dasharray="1,5" points="1298,-70 1298,-268 2115,-268 2115,-70 1298,-70"/>
</g>
<g id="clust8" class="cluster">
<title>cluster_TemplatePlaygroundModule_declarations</title>
<polygon fill="none" stroke="black" points="1893,-78 1893,-130 2107,-130 2107,-78 1893,-78"/>
</g>
<g id="clust12" class="cluster">
<title>cluster_TemplatePlaygroundModule_bootstrap</title>
<polygon fill="none" stroke="black" points="1584,-208 1584,-260 1802,-260 1802,-208 1584,-208"/>
</g>
<g id="clust13" class="cluster">
<title>cluster_TemplatePlaygroundModule_providers</title>
<polygon fill="none" stroke="black" points="1306,-78 1306,-130 1885,-130 1885,-78 1306,-78"/>
</g>
<!-- RepositoryAuth -->
<g id="node1" class="node">
<title>RepositoryAuth</title>
<ellipse fill="#fdb462" stroke="black" cx="1201" cy="-104" rx="72.95" ry="18"/>
<text text-anchor="middle" x="1201" y="-99.8" font-family="Times,serif" font-size="14.00">RepositoryAuth</text>
</g>
<!-- AppModule -->
<g id="node9" class="node">
<title>AppModule</title>
<polygon fill="#8dd3c7" stroke="black" points="679.66,-187 676.66,-191 655.66,-191 652.66,-187 596.34,-187 596.34,-151 679.66,-151 679.66,-187"/>
<text text-anchor="middle" x="638" y="-164.8" font-family="Times,serif" font-size="14.00">AppModule</text>
</g>
<!-- RepositoryAuth&#45;&gt;AppModule -->
<g id="edge1" class="edge">
<title>RepositoryAuth&#45;&gt;AppModule</title>
<path fill="none" stroke="black" d="M1201,-122.01C1201,-144.49 1201,-180 1201,-180 1201,-180 689.86,-180 689.86,-180"/>
<polygon fill="black" stroke="black" points="689.86,-176.5 679.86,-180 689.86,-183.5 689.86,-176.5"/>
</g>
<!-- RepositoryProject -->
<g id="node2" class="node">
<title>RepositoryProject</title>
<ellipse fill="#fdb462" stroke="black" cx="1030" cy="-104" rx="80.54" ry="18"/>
<text text-anchor="middle" x="1030" y="-99.8" font-family="Times,serif" font-size="14.00">RepositoryProject</text>
</g>
<!-- RepositoryProject&#45;&gt;AppModule -->
<g id="edge2" class="edge">
<title>RepositoryProject&#45;&gt;AppModule</title>
<path fill="none" stroke="black" d="M1030,-122.13C1030,-142.57 1030,-173 1030,-173 1030,-173 689.95,-173 689.95,-173"/>
<polygon fill="black" stroke="black" points="689.95,-169.5 679.95,-173 689.95,-176.5 689.95,-169.5"/>
</g>
<!-- RepositoryUser -->
<g id="node3" class="node">
<title>RepositoryUser</title>
<ellipse fill="#fdb462" stroke="black" cx="860" cy="-104" rx="71.79" ry="18"/>
<text text-anchor="middle" x="860" y="-99.8" font-family="Times,serif" font-size="14.00">RepositoryUser</text>
</g>
<!-- RepositoryUser&#45;&gt;AppModule -->
<g id="edge3" class="edge">
<title>RepositoryUser&#45;&gt;AppModule</title>
<path fill="none" stroke="black" d="M860,-122.27C860,-140.56 860,-166 860,-166 860,-166 689.76,-166 689.76,-166"/>
<polygon fill="black" stroke="black" points="689.76,-162.5 679.76,-166 689.76,-169.5 689.76,-162.5"/>
</g>
<!-- ServiceAuth -->
<g id="node4" class="node">
<title>ServiceAuth</title>
<ellipse fill="#fdb462" stroke="black" cx="711" cy="-104" rx="59.11" ry="18"/>
<text text-anchor="middle" x="711" y="-99.8" font-family="Times,serif" font-size="14.00">ServiceAuth</text>
</g>
<!-- ServiceAuth&#45;&gt;AppModule -->
<g id="edge4" class="edge">
<title>ServiceAuth&#45;&gt;AppModule</title>
<path fill="none" stroke="black" d="M665.76,-115.92C665.76,-115.92 665.76,-140.77 665.76,-140.77"/>
<polygon fill="black" stroke="black" points="662.26,-140.77 665.76,-150.77 669.26,-140.77 662.26,-140.77"/>
</g>
<!-- ServiceProject -->
<g id="node5" class="node">
<title>ServiceProject</title>
<ellipse fill="#fdb462" stroke="black" cx="566" cy="-104" rx="67.19" ry="18"/>
<text text-anchor="middle" x="566" y="-99.8" font-family="Times,serif" font-size="14.00">ServiceProject</text>
</g>
<!-- ServiceProject&#45;&gt;AppModule -->
<g id="edge5" class="edge">
<title>ServiceProject&#45;&gt;AppModule</title>
<path fill="none" stroke="black" d="M614.76,-116.53C614.76,-116.53 614.76,-140.85 614.76,-140.85"/>
<polygon fill="black" stroke="black" points="611.26,-140.85 614.76,-150.85 618.26,-140.85 611.26,-140.85"/>
</g>
<!-- StrategyGoogleOauth -->
<g id="node6" class="node">
<title>StrategyGoogleOauth</title>
<ellipse fill="#fdb462" stroke="black" cx="385" cy="-104" rx="95.49" ry="18"/>
<text text-anchor="middle" x="385" y="-99.8" font-family="Times,serif" font-size="14.00">StrategyGoogleOauth</text>
</g>
<!-- StrategyGoogleOauth&#45;&gt;AppModule -->
<g id="edge6" class="edge">
<title>StrategyGoogleOauth&#45;&gt;AppModule</title>
<path fill="none" stroke="black" d="M385,-122.03C385,-138.4 385,-160 385,-160 385,-160 586.22,-160 586.22,-160"/>
<polygon fill="black" stroke="black" points="586.22,-163.5 596.22,-160 586.22,-156.5 586.22,-163.5"/>
</g>
<!-- StrategyJwt -->
<g id="node7" class="node">
<title>StrategyJwt</title>
<ellipse fill="#fdb462" stroke="black" cx="215" cy="-104" rx="56.76" ry="18"/>
<text text-anchor="middle" x="215" y="-99.8" font-family="Times,serif" font-size="14.00">StrategyJwt</text>
</g>
<!-- StrategyJwt&#45;&gt;AppModule -->
<g id="edge7" class="edge">
<title>StrategyJwt&#45;&gt;AppModule</title>
<path fill="none" stroke="black" d="M215,-122.11C215,-141.34 215,-169 215,-169 215,-169 586.28,-169 586.28,-169"/>
<polygon fill="black" stroke="black" points="586.28,-172.5 596.28,-169 586.28,-165.5 586.28,-172.5"/>
</g>
<!-- UserService -->
<g id="node8" class="node">
<title>UserService</title>
<ellipse fill="#fdb462" stroke="black" cx="82" cy="-104" rx="58.44" ry="18"/>
<text text-anchor="middle" x="82" y="-99.8" font-family="Times,serif" font-size="14.00">UserService</text>
</g>
<!-- UserService&#45;&gt;AppModule -->
<g id="edge8" class="edge">
<title>UserService&#45;&gt;AppModule</title>
<path fill="none" stroke="black" d="M82,-122.29C82,-144.21 82,-178 82,-178 82,-178 586.21,-178 586.21,-178"/>
<polygon fill="black" stroke="black" points="586.21,-181.5 596.21,-178 586.21,-174.5 586.21,-181.5"/>
</g>
<!-- TemplatePlaygroundComponent -->
<g id="node10" class="node">
<title>TemplatePlaygroundComponent</title>
<polygon fill="#ffffb3" stroke="black" points="2099.25,-122 1900.75,-122 1900.75,-86 2099.25,-86 2099.25,-122"/>
<text text-anchor="middle" x="2000" y="-99.8" font-family="Times,serif" font-size="14.00">TemplatePlaygroundComponent</text>
</g>
<!-- TemplatePlaygroundModule -->
<g id="node11" class="node">
<title>TemplatePlaygroundModule</title>
<polygon fill="#8dd3c7" stroke="black" points="1781.47,-187 1778.47,-191 1757.47,-191 1754.47,-187 1604.53,-187 1604.53,-151 1781.47,-151 1781.47,-187"/>
<text text-anchor="middle" x="1693" y="-164.8" font-family="Times,serif" font-size="14.00">TemplatePlaygroundModule</text>
</g>
<!-- TemplatePlaygroundComponent&#45;&gt;TemplatePlaygroundModule -->
<g id="edge9" class="edge">
<title>TemplatePlaygroundComponent&#45;&gt;TemplatePlaygroundModule</title>
<path fill="none" stroke="black" d="M2000,-122.11C2000,-141.34 2000,-169 2000,-169 2000,-169 1791.8,-169 1791.8,-169"/>
<polygon fill="black" stroke="black" points="1791.8,-165.5 1781.8,-169 1791.8,-172.5 1791.8,-165.5"/>
</g>
<!-- TemplatePlaygroundComponent  -->
<g id="node12" class="node">
<title>TemplatePlaygroundComponent </title>
<polygon fill="#80b1d3" stroke="black" points="1794.25,-252 1591.75,-252 1591.75,-216 1794.25,-216 1794.25,-252"/>
<text text-anchor="middle" x="1693" y="-229.8" font-family="Times,serif" font-size="14.00">TemplatePlaygroundComponent </text>
</g>
<!-- TemplatePlaygroundModule&#45;&gt;TemplatePlaygroundComponent  -->
<g id="edge10" class="edge">
<title>TemplatePlaygroundModule&#45;&gt;TemplatePlaygroundComponent </title>
<path fill="none" stroke="black" stroke-dasharray="1,5" d="M1693,-187.11C1693,-187.11 1693,-205.99 1693,-205.99"/>
<polygon fill="black" stroke="black" points="1689.5,-205.99 1693,-215.99 1696.5,-205.99 1689.5,-205.99"/>
</g>
<!-- HbsRenderService -->
<g id="node13" class="node">
<title>HbsRenderService</title>
<ellipse fill="#fdb462" stroke="black" cx="1794" cy="-104" rx="83.37" ry="18"/>
<text text-anchor="middle" x="1794" y="-99.8" font-family="Times,serif" font-size="14.00">HbsRenderService</text>
</g>
<!-- HbsRenderService&#45;&gt;TemplatePlaygroundModule -->
<g id="edge11" class="edge">
<title>HbsRenderService&#45;&gt;TemplatePlaygroundModule</title>
<path fill="none" stroke="black" d="M1746.03,-118.75C1746.03,-118.75 1746.03,-140.59 1746.03,-140.59"/>
<polygon fill="black" stroke="black" points="1742.53,-140.59 1746.03,-150.59 1749.53,-140.59 1742.53,-140.59"/>
</g>
<!-- TemplateEditorService -->
<g id="node14" class="node">
<title>TemplateEditorService</title>
<ellipse fill="#fdb462" stroke="black" cx="1592" cy="-104" rx="100.7" ry="18"/>
<text text-anchor="middle" x="1592" y="-99.8" font-family="Times,serif" font-size="14.00">TemplateEditorService</text>
</g>
<!-- TemplateEditorService&#45;&gt;TemplatePlaygroundModule -->
<g id="edge12" class="edge">
<title>TemplateEditorService&#45;&gt;TemplatePlaygroundModule</title>
<path fill="none" stroke="black" d="M1648.56,-119.08C1648.56,-119.08 1648.56,-140.76 1648.56,-140.76"/>
<polygon fill="black" stroke="black" points="1645.06,-140.76 1648.56,-150.76 1652.06,-140.76 1645.06,-140.76"/>
</g>
<!-- ZipExportService -->
<g id="node15" class="node">
<title>ZipExportService</title>
<ellipse fill="#fdb462" stroke="black" cx="1394" cy="-104" rx="79.87" ry="18"/>
<text text-anchor="middle" x="1394" y="-99.8" font-family="Times,serif" font-size="14.00">ZipExportService</text>
</g>
<!-- ZipExportService&#45;&gt;TemplatePlaygroundModule -->
<g id="edge13" class="edge">
<title>ZipExportService&#45;&gt;TemplatePlaygroundModule</title>
<path fill="none" stroke="black" d="M1394,-122.01C1394,-138.05 1394,-159 1394,-159 1394,-159 1594.5,-159 1594.5,-159"/>
<polygon fill="black" stroke="black" points="1594.5,-162.5 1604.5,-159 1594.5,-155.5 1594.5,-162.5"/>
</g>
</g>
</svg>
